# xmcd
#
# Track frame offsets: 
#        150
#        12187
#        24223
#        35325
#        47929
#        60185
#        71245
#        83063
#        95114
#        108197
#        120728
#        133396
#        146673
#        161666
#        175531
#        190473
#        205544
#        220761
#        235408
#        248506
#        261579
#        274661
#        286913
#        303131
#        315517
#
# Disc length: 4386 seconds
#
# Revision: 0
# Processed by: cddbd v1.5.2PL0 Copyright (c) Steve Scherf et al.
# Submitted via: ExactAudioCopyFreeDBPlugin 1.0
#
DISCID=60112019
DTITLE=Various Artist - Viola McCoy Vol. 3 and Julia Moody Complete
DYEAR=1995
DGENRE=Blues
TTITLE0=Viola McCoy - "Git" Goin'
TTITLE1=Viola McCoy - Some Day You'll Come Back to Me
TTITLE2=Viola McCoy - Slow Up Papa
TTITLE3=Viola McCoy - Fortune Teller Blues
TTITLE4=Viola McCoy - Black Snake Blues
TTITLE5=Viola McCoy - Body and Soul (He Belongs to Me)
TTITLE6=Viola McCoy - Back Water Blues
TTITLE7=Viola McCoy - Mama Is Waitin' for You
TTITLE8=Viola McCoy - Dyin' Crap Shooter's Blues
TTITLE9=Viola McCoy - Gay-Catin Daddy
TTITLE10=Viola McCoy - I Want a Good Man (And I Want Him Bad)
TTITLE11=Viola McCoy - If You Really Love Your Baby
TTITLE12=Julia Moody - The Cootie Crawl
TTITLE13=Julia Moody - Jada Blues
TTITLE14=Julia Moody - Good Man Sam
TTITLE15=Julia Moody - Worried Blues
TTITLE16=Julia Moody - Mad Mama's Blues
TTITLE17=Julia Moody - Broken Busted, Can't Be Trusted Blues
TTITLE18=Julia Moody - Don't Forget, You'll Regret
TTITLE19=Julia Moody - Strivin' Blues
TTITLE20=Julia Moody - Last Night Blues
TTITLE21=Julia Moody - That Chicago Wiggle
TTITLE22=Julia Moody - Midnight Dan
TTITLE23=Julia Moody - Police Blues
TTITLE24=Julia Moody - He'll Do You Wrong
EXTD=
EXTT0=
EXTT1=
EXTT2=
EXTT3=
EXTT4=
EXTT5=
EXTT6=
EXTT7=
EXTT8=
EXTT9=
EXTT10=
EXTT11=
EXTT12=
EXTT13=
EXTT14=
EXTT15=
EXTT16=
EXTT17=
EXTT18=
EXTT19=
EXTT20=
EXTT21=
EXTT22=
EXTT23=
EXTT24=
PLAYORDER=
